<svg xmlns="http://www.w3.org/2000/svg" width="173" height="52" viewBox="0 0 173 52">
    <defs>
        <linearGradient id="a" x1="50%" x2="50%" y1="0%" y2="100%">
            <stop offset="0%" stop-color="#C700C5"/>
            <stop offset="100%" stop-color="#960092"/>
        </linearGradient>
        <radialGradient id="b" cx="8.675%" cy="11.491%" r="109.45%" fx="8.675%" fy="11.491%" gradientTransform="matrix(0 .91366 -1 0 .202 .036)">
            <stop offset="0%" stop-color="#00AEEC"/>
            <stop offset="100%" stop-color="#0076D4"/>
        </radialGradient>
    </defs>
    <g fill="none" fill-rule="evenodd">
        <path fill="url(#a)" d="M58.018 23.566l-.675 3.564h-7.04l-.909 4.801h7.89l-.674 3.624H44.496L48.25 15.7h11.704l-.704 3.623H51.8l-.822 4.242h7.04zm5.69 11.989h-4.223l1.818-9.721c.352-1.826.587-3.417.763-4.684h3.754l-.293 2.386h.059c1.349-1.885 3.138-2.71 5.045-2.71 2.346 0 3.666 1.444 3.666 3.918 0 .648-.117 1.738-.234 2.445l-1.584 8.366h-4.224l1.496-7.983c.088-.5.147-1.09.147-1.62 0-1.002-.352-1.709-1.408-1.709-1.379 0-2.992 1.738-3.579 4.92l-1.203 6.392zm16.104-17.439l4.312-1.001-.763 4.035h3.05l-.615 3.211h-3.05l-.969 4.89c-.117.589-.235 1.325-.235 1.826 0 .707.294 1.208 1.203 1.208.381 0 .792 0 1.173-.059l-.498 3.329c-.528.206-1.584.324-2.494.324-2.522 0-3.725-1.296-3.725-3.093 0-.796.088-1.591.294-2.68l1.114-5.745h-1.818l.586-3.21h1.848l.587-3.035zm17.951 13.55l.293 3.064c-1.671.854-3.754 1.12-5.338 1.12-4.107 0-6.218-2.328-6.218-6.069 0-4.389 3.167-8.955 8.36-8.955 2.903 0 4.986 1.62 4.986 4.301 0 3.682-3.55 5.008-9.299 4.86 0 .413.147 1.06.44 1.473.558.737 1.526 1.12 2.758 1.12a8.987 8.987 0 0 0 4.018-.914zm-1.877-6.51c0-.736-.587-1.237-1.555-1.237-1.965 0-3.08 1.62-3.373 2.975 3.285.03 4.928-.441 4.928-1.738zm9.093 10.399h-4.224l1.613-8.572c.41-2.18.587-4.596.734-5.833h3.666c-.088.972-.176 1.944-.264 2.946h.088c.997-1.915 2.61-3.27 4.576-3.27.264 0 .528 0 .792.03l-.821 4.124c-.206-.03-.44-.03-.675-.03-2.699 0-3.96 2.416-4.488 5.244l-.997 5.36zm9.68 5.832h-4.195l2.757-14.67c.323-1.708.675-4.094.85-5.567h3.785l-.264 2.092h.058c1.174-1.561 2.875-2.416 4.605-2.416 3.11 0 4.606 2.504 4.606 5.45 0 5.007-3.315 9.603-8.301 9.603-1.174 0-2.17-.295-2.67-.59h-.058l-1.174 6.098zm2.346-12.519l-.528 3.093c.47.442 1.115.707 1.936.707 2.259 0 4.018-3.24 4.018-6.068 0-1.149-.469-2.357-1.847-2.357-1.584 0-3.051 1.797-3.579 4.625zm15.311 6.687h-4.223l1.613-8.572c.41-2.18.587-4.596.733-5.833h3.667c-.088.972-.176 1.944-.264 2.946h.088c.997-1.915 2.61-3.27 4.576-3.27.264 0 .528 0 .791.03l-.82 4.124c-.206-.03-.44-.03-.675-.03-2.699 0-3.96 2.416-4.488 5.244l-.998 5.36zm10.853 0h-4.223l2.727-14.405h4.224l-2.728 14.405zm1.144-16.202c-1.173 0-2.053-.795-2.053-2.062.03-1.443 1.144-2.415 2.435-2.415 1.232 0 2.112.825 2.112 2.091 0 1.503-1.144 2.386-2.494 2.386zm1.907 15.377l1.027-2.975c.82.412 2.375 1.001 3.754 1.001 1.203 0 1.819-.589 1.819-1.296 0-.707-.47-1.208-1.79-1.856-1.672-.824-3.05-2.032-3.05-3.829 0-2.975 2.61-4.949 6.306-4.949 1.672 0 2.992.324 3.696.737l-.997 3.004a6.687 6.687 0 0 0-2.875-.648c-1.114 0-1.877.501-1.877 1.267 0 .589.587 1.09 1.76 1.65 1.555.795 3.197 1.944 3.197 3.947 0 3.299-2.786 5.066-6.57 5.066-1.819 0-3.55-.471-4.4-1.12zm24.404-3.064l.294 3.064c-1.672.854-3.755 1.12-5.339 1.12-4.106 0-6.218-2.328-6.218-6.069 0-4.389 3.168-8.955 8.36-8.955 2.903 0 4.986 1.62 4.986 4.301 0 3.682-3.55 5.008-9.298 4.86 0 .413.146 1.06.44 1.473.557.737 1.525 1.12 2.757 1.12a8.987 8.987 0 0 0 4.018-.914zm-1.877-6.51c0-.736-.587-1.237-1.555-1.237-1.965 0-3.08 1.62-3.373 2.975 3.285.03 4.928-.441 4.928-1.738z"/>
        <ellipse cx="25.74" cy="26" fill="url(#b)" rx="17.399" ry="19.044" transform="rotate(47 25.74 26)"/>
        <path fill="#FFF" d="M22.566 15.631c-1.283 0-2.173-.93-2.137-2.217 0-1.503 1.14-2.54 2.493-2.54 1.282 0 2.208.93 2.208 2.254-.036 1.538-1.175 2.503-2.564 2.503z"/>
        <path fill="#FFF" fill-rule="nonzero" d="M20.607 35.555h-4.132l3.277-17.42h4.167l-3.312 17.42zm9.367-21.176l4.239-1.037-.89 4.793h3.917l-.641 3.22h-3.882l-1.39 7.046c-.142.823-.284 1.717-.284 2.468 0 .93.427 1.538 1.531 1.538.499 0 .997 0 1.425-.072l-.392 3.255c-.605.215-1.71.358-2.707.358-2.85 0-4.132-1.574-4.132-3.577 0-1.001.107-1.967.392-3.255l1.496-7.762h-2.35l.605-3.219h2.35l.713-3.756z"/>
    </g>
</svg>
